<?xml version="1.0" encoding="UTF-8" standalone="no"?>
<!-- Created with Inkscape (http://www.inkscape.org/) -->

<svg
   width="400"
   height="150"
   viewBox="0 0 105.83333 39.6875"
   version="1.1"
   id="svg5"
   xmlns="http://www.w3.org/2000/svg"
   xmlns:svg="http://www.w3.org/2000/svg">
  <defs
     id="defs2" />
  <g
     id="g447"
     style="fill:#999999">
    <g
       aria-label="CFS"
       id="g443"
       style="font-size:50.8px;fill:#999999;stroke-width:0.264583"
       transform="translate(0.48085258,0.03631093)">
      <path
         d="m 19.824107,38.624644 c 6.5532,0 11.8364,-1.778 16.1544,-7.0612 l -7.0612,-6.7564 c -2.4384,2.9464 -5.1308,4.1148 -7.9248,4.1148 -4.4196,0 -7.490525,-2.618675 -7.490525,-6.784275 0,-6.35 4.137725,-10.995725 9.776525,-10.995725 3.2512,0 73.789297,0.735039 75.751609,0.220795 L 103.28301,2.4146808 C 99.815573,2.2257977 31.899655,2.0526808 24.566481,1.9650184 11.410221,1.8077455 1.586907,10.227444 1.586907,22.724244 c 0,9.4488 7.2135999,15.9004 18.2372,15.9004 z"
         style="font-family:Montserrat;-inkscape-font-specification:Montserrat;fill:#999999"
         id="path437" />
      <path
         d="m 54.163461,14.270472 -11.483174,0.01123 -0.002,0.04214 -5.53964,24.189289 H 49.21066 l 2.301877,-11.017904 h 14.885465 l 1.841501,-8.755302 H 53.302885 l 0.920849,-4.511607 z"
         style="font-size:51.1528px;fill:#999999;stroke-width:0.25945"
         id="path439" />
      <path
         style="font-family:Montserrat;-inkscape-font-specification:Montserrat;fill:#999999;stroke-width:0.256366"
         d="m 84.46564,38.624644 c 11.0744,0 17.9832,-5.007809 17.9832,-12.447982 0,-10.301779 -16.998193,-8.197585 -16.998193,-11.869978 l -11.724255,-0.0025 c -0.681853,10.494963 16.682848,10.250894 16.682848,13.780207 0,1.192335 -1.6256,1.95543 -4.7244,1.95543 -3.9624,0 -8.026399,-0.953869 -11.988799,-3.100072 l -4.6228,8.298654 c 3.4036,1.955431 9.0424,3.386233 15.392399,3.386233 z"
         id="path441" />
    </g>
  </g>
  <g
     id="g412"
     style="fill:#ffffff">
    <g
       aria-label="CFS"
       id="g408"
       style="font-size:50.8px;fill:#ffffff;stroke-width:0.264583"
       transform="translate(0.10893279,-0.08766234)">
      <path
         d="m 19.824107,38.624644 c 6.5532,0 11.8364,-1.778 16.1544,-7.0612 l -7.0612,-6.7564 c -2.4384,2.9464 -5.1308,4.1148 -7.9248,4.1148 -4.4196,0 -7.490525,-2.618675 -7.490525,-6.784275 0,-6.35 4.137725,-10.995725 9.776525,-10.995725 3.2512,0 73.789297,0.735039 75.751609,0.220795 L 103.28301,2.4146808 C 99.815573,2.2257977 31.899655,2.0526808 24.566481,1.9650184 11.410221,1.8077455 1.586907,10.227444 1.586907,22.724244 c 0,9.4488 7.2135999,15.9004 18.2372,15.9004 z"
         style="font-family:Montserrat;-inkscape-font-specification:Montserrat;fill:#ffffff"
         id="path402" />
      <path
         d="m 54.163461,14.270472 -11.483174,0.01123 -0.002,0.04214 -5.53964,24.189289 H 49.21066 l 2.301877,-11.017904 h 14.885465 l 1.841501,-8.755302 H 53.302885 l 0.920849,-4.511607 z"
         style="font-size:51.1528px;fill:#ffffff;stroke-width:0.25945"
         id="path404" />
      <path
         style="font-family:Montserrat;-inkscape-font-specification:Montserrat;fill:#ffffff;stroke-width:0.256366"
         d="m 84.46564,38.624644 c 11.0744,0 17.9832,-5.007809 17.9832,-12.447982 0,-10.301779 -16.998193,-8.197585 -16.998193,-11.869978 l -11.724255,-0.0025 c -0.681853,10.494963 16.682848,10.250894 16.682848,13.780207 0,1.192335 -1.6256,1.95543 -4.7244,1.95543 -3.9624,0 -8.026399,-0.953869 -11.988799,-3.100072 l -4.6228,8.298654 c 3.4036,1.955431 9.0424,3.386233 15.392399,3.386233 z"
         id="path406" />
    </g>
  </g>
</svg>
